<?xml version="1.0" encoding="iso-8859-1"?>
<!-- Uploaded to: SVG Repo, www.svgrepo.com, Generator: SVG Repo Mixer Tools -->
<svg height="800px" width="800px" version="1.1" id="Layer_1" xmlns="http://www.w3.org/2000/svg" xmlns:xlink="http://www.w3.org/1999/xlink" 
	 viewBox="0 0 511.988 511.988" xml:space="preserve">
<path style="fill:#FFCE54;" d="M202.654,111.997V63.998c0-29.406,23.921-53.327,53.342-53.327c29.398,0,53.336,23.921,53.336,53.327
	v47.999H202.654z"/>
<path style="fill:#F6BB42;" d="M255.996,0c-35.357,0-63.998,28.655-63.998,63.999v58.67h127.989v-58.67
	C319.987,28.655,291.332,0,255.996,0z M298.644,101.333h-85.318V63.998c0-23.523,19.14-42.663,42.67-42.663
	c23.523,0,42.648,19.14,42.648,42.663V101.333z"/>
<path style="fill:#AC92EB;" d="M469.328,298.665c0-117.817-95.529-213.331-213.332-213.331
	c-117.824,0-213.338,95.514-213.338,213.331c0,117.825,95.514,213.323,213.338,213.323
	C373.799,511.988,469.328,416.49,469.328,298.665z"/>
<path style="fill:#967ADC;" d="M395.799,137.528c32.498,37.444,52.186,86.326,52.186,139.81
	c0,117.81-95.498,213.323-213.331,213.323c-53.482,0-102.356-19.672-139.793-52.202c39.108,45.046,96.794,73.529,161.136,73.529
	c117.803,0,213.332-95.498,213.332-213.323C469.328,234.323,440.828,176.644,395.799,137.528z"/>
<path style="fill:#A0D468;" d="M374.736,121.427c-75.279,36.233-175.879,67.413-308.001,78.732
	c-15.374,29.468-24.077,62.968-24.077,98.506c0,16.358,1.844,32.312,5.344,47.624c191.917-15.016,322.266-69.279,407.264-123.856
	C439.422,181.012,411.048,145.793,374.736,121.427z"/>
<path style="fill:#8CC153;" d="M442.765,230.26c4.281-2.609,8.438-5.218,12.5-7.828c-12.625-33-33.219-62.062-59.404-84.834
	C418.485,163.699,434.89,195.363,442.765,230.26z"/>
<path style="fill:#A0D468;" d="M140.468,478.036c33.297,21.483,72.952,33.952,115.528,33.952
	c94.678,0,174.926-61.687,202.801-147.06C387.892,410.849,284.988,456.411,140.468,478.036z"/>
<path style="fill:#8CC153;" d="M262.605,511.879c1.172-0.031,2.328-0.078,3.5-0.141c0.578-0.016,1.172-0.047,1.766-0.078
	c1.141-0.062,2.281-0.141,3.422-0.219c0.547-0.047,1.07-0.078,1.602-0.109c1.531-0.125,3.031-0.25,4.531-0.406
	c0.125-0.016,0.281-0.031,0.438-0.031c1.625-0.172,3.25-0.375,4.875-0.562c0.5-0.062,1.031-0.141,1.531-0.219
	c1.125-0.141,2.25-0.297,3.375-0.469c0.594-0.078,1.188-0.172,1.75-0.266c1.094-0.172,2.156-0.359,3.25-0.531
	c0.562-0.109,1.094-0.203,1.656-0.297c1.312-0.234,2.656-0.5,3.969-0.75c0.281-0.062,0.562-0.109,0.812-0.156
	c1.562-0.328,3.125-0.672,4.688-1.031c0.531-0.125,1.031-0.25,1.562-0.375c1.031-0.25,2.094-0.5,3.156-0.766
	c0.594-0.141,1.188-0.297,1.812-0.453c0.969-0.281,1.969-0.531,2.937-0.812c0.594-0.156,1.188-0.312,1.781-0.5
	c1.125-0.312,2.25-0.656,3.375-1c0.406-0.125,0.812-0.25,1.219-0.375c1.469-0.453,2.938-0.938,4.406-1.422
	c0.562-0.188,1.094-0.391,1.656-0.578c0.938-0.312,1.906-0.656,2.844-1c0.625-0.219,1.25-0.453,1.875-0.688
	c0.875-0.328,1.75-0.656,2.625-1c0.625-0.25,1.249-0.484,1.874-0.734c0.938-0.359,1.875-0.75,2.812-1.141
	c0.531-0.219,1.062-0.438,1.594-0.656c1.375-0.594,2.719-1.188,4.062-1.781c0.625-0.281,1.25-0.562,1.844-0.844
	c0.812-0.374,1.625-0.749,2.438-1.14c0.656-0.328,1.344-0.641,2-0.984c0.75-0.344,1.469-0.719,2.219-1.094
	c0.688-0.344,1.344-0.688,2.031-1.031c0.719-0.375,1.469-0.766,2.188-1.156c0.656-0.344,1.312-0.688,1.969-1.047
	c1.25-0.672,2.469-1.359,3.688-2.078c0.719-0.391,1.406-0.812,2.094-1.219c0.656-0.375,1.281-0.75,1.906-1.125
	c0.719-0.438,1.438-0.875,2.156-1.312c0.594-0.375,1.188-0.734,1.75-1.094c0.75-0.469,1.5-0.938,2.219-1.406
	c0.531-0.344,1.062-0.703,1.594-1.062c2.719-1.781,5.375-3.625,7.969-5.531c0.438-0.312,0.875-0.625,1.312-0.953
	c0.781-0.578,1.562-1.156,2.312-1.734c0.438-0.344,0.875-0.656,1.312-1c0.781-0.594,1.531-1.203,2.312-1.812
	c0.375-0.297,0.719-0.594,1.094-0.875c2.75-2.234,5.469-4.531,8.094-6.875c0.219-0.203,0.469-0.406,0.688-0.594
	c0.812-0.734,1.624-1.469,2.405-2.219c0.281-0.266,0.594-0.531,0.875-0.812c0.812-0.75,1.594-1.5,2.375-2.266
	c0.25-0.219,0.469-0.438,0.688-0.641c2.75-2.718,5.469-5.499,8.094-8.343c0.031-0.031,0.031-0.031,0.062-0.062
	c0.812-0.906,1.625-1.812,2.438-2.719c0.188-0.188,0.344-0.375,0.5-0.562c0.812-0.906,1.594-1.828,2.375-2.75
	c0.125-0.125,0.25-0.25,0.344-0.375c3.437-4.062,6.718-8.219,9.843-12.516c0.062-0.109,0.125-0.203,0.219-0.297
	c0.75-1.062,1.5-2.125,2.25-3.188c0.031-0.047,0.094-0.094,0.125-0.156c3.094-4.469,6.062-9.062,8.844-13.781v-0.031
	c7.688-13.077,14.031-27.046,18.812-41.718c-13.281,8.625-27.719,17.219-43.343,25.656
	c-37.719,60.09-104.592,100.074-180.802,100.074c-27.843,0-54.42-5.344-78.811-15.047c-5.062,0.844-10.188,1.656-15.375,2.422
	c6.25,4.016,12.703,7.734,19.359,11.109c0.016,0,0.031,0,0.031,0c3.312,1.688,6.656,3.265,10.062,4.765
	c0.047,0.016,0.094,0.047,0.141,0.062c3.359,1.484,6.766,2.875,10.219,4.188c0.094,0.047,0.188,0.078,0.281,0.109
	c3.405,1.281,6.858,2.5,10.343,3.594c0.156,0.062,0.297,0.109,0.453,0.156c1.109,0.344,2.219,0.688,3.328,1.031
	c0.031,0,0.062,0.016,0.094,0.031c1.188,0.344,2.391,0.703,3.609,1.031c0,0,0.047,0.031,0.078,0.031
	c1.109,0.312,2.203,0.594,3.312,0.906c0.219,0.047,0.422,0.094,0.625,0.156c1.031,0.25,2.062,0.531,3.109,0.781
	c0.125,0.031,0.25,0.062,0.375,0.094c1.188,0.281,2.391,0.562,3.578,0.812c0.062,0.031,0.125,0.031,0.188,0.047
	c1.078,0.234,2.172,0.469,3.25,0.703c0.266,0.047,0.531,0.094,0.781,0.156c0.969,0.188,1.938,0.375,2.922,0.562
	c0.203,0.031,0.406,0.078,0.625,0.109c1.172,0.219,2.359,0.422,3.562,0.625c0.078,0.016,0.172,0.031,0.266,0.047
	c1.062,0.172,2.125,0.344,3.203,0.5c0.312,0.047,0.609,0.094,0.922,0.125c0.922,0.141,1.843,0.281,2.765,0.391
	c0.266,0.047,0.547,0.078,0.828,0.109c1.172,0.156,2.359,0.297,3.547,0.422c0.094,0.016,0.188,0.016,0.297,0.031
	c1.062,0.109,2.141,0.234,3.219,0.328c0.344,0.031,0.688,0.062,1.016,0.094c0.891,0.078,1.781,0.156,2.672,0.219
	c0.328,0.031,0.656,0.047,0.969,0.062c1.188,0.094,2.375,0.172,3.562,0.234c0.078,0.016,0.156,0.016,0.219,0.016
	c1.125,0.062,2.234,0.109,3.344,0.156c0.358,0,0.718,0.031,1.077,0.031c0.875,0.031,1.75,0.062,2.641,0.062
	c0.344,0.016,0.703,0.031,1.062,0.031c1.188,0.031,2.391,0.031,3.594,0.031c1.672,0,3.359-0.031,5.031-0.062
	C261.558,511.926,262.09,511.894,262.605,511.879z"/>
</svg>