<?xml version="1.0" encoding="iso-8859-1"?>
<!-- Uploaded to: SVG Repo, www.svgrepo.com, Generator: SVG Repo Mixer Tools -->
<svg height="800px" width="800px" version="1.1" id="Layer_1" xmlns="http://www.w3.org/2000/svg" xmlns:xlink="http://www.w3.org/1999/xlink" 
	 viewBox="0 0 511.988 511.988" xml:space="preserve">
<path style="fill:#FFCE54;" d="M202.667,111.997V63.998c0-29.414,23.921-53.334,53.326-53.334c29.406,0,53.328,23.921,53.328,53.334
	v47.999H202.667z"/>
<path style="fill:#F6BB42;" d="M255.992,0c-35.342,0-63.998,28.647-63.998,63.999v58.663h127.997V63.998
	C319.991,28.647,291.336,0,255.992,0z M298.664,101.326h-85.342V63.998c0-23.531,19.14-42.671,42.67-42.671
	c23.531,0,42.672,19.14,42.672,42.671V101.326z"/>
<path style="fill:#A0D468;" d="M469.316,298.649c0-117.81-95.498-213.323-213.324-213.323
	c-117.824,0-213.322,95.514-213.322,213.323c0,117.825,95.498,213.339,213.322,213.339
	C373.819,511.988,469.316,416.474,469.316,298.649z"/>
<path style="fill:#8CC153;" d="M395.803,137.52c32.498,37.444,52.186,86.326,52.186,139.802
	c0,117.825-95.514,213.323-213.323,213.323c-53.482,0-102.372-19.672-139.809-52.187c39.108,45.046,96.794,73.529,161.136,73.529
	c117.826,0,213.324-95.514,213.324-213.339C469.316,234.315,440.832,176.637,395.803,137.52z"/>
<path style="fill:#FC6E51;" d="M259.884,220.472c-97.763-19.773-164.339-14.047-199.308-7.484
	c-11.515,26.226-17.905,55.194-17.905,85.662c0,25.187,4.375,49.374,12.39,71.811c33.203-6.953,101.639-14.499,204.823,6.375
	c95.373,19.297,157.981,14.312,191.309,7.969c11.656-26.343,18.125-55.499,18.125-86.154c0-25.03-4.328-49.077-12.25-71.404
	C425.504,234.073,361.178,240.955,259.884,220.472z"/>
<path style="fill:#E9573F;" d="M469.254,293.556c-0.031-1.391-0.078-2.781-0.125-4.156c-0.016-0.125-0.016-0.234-0.016-0.359
	c-0.062-1.328-0.141-2.641-0.219-3.969c-0.016-0.203-0.031-0.422-0.047-0.641c-0.094-1.422-0.203-2.843-0.312-4.249
	c-0.016-0.109-0.031-0.219-0.031-0.312c-0.125-1.453-0.266-2.906-0.422-4.344c0-0.016,0-0.031-0.016-0.047
	c-0.156-1.516-0.344-3.016-0.531-4.531v-0.016c-1.969-15.117-5.516-29.734-10.469-43.687c-4.203,0.914-9,1.82-14.375,2.671
	c3.453,15.242,5.297,31.109,5.297,47.406c0,41.076-11.625,79.436-31.733,111.981c13.983-1.062,25.608-2.719,34.937-4.5
	c0.719-1.625,1.422-3.25,2.094-4.906c0.031-0.078,0.078-0.156,0.109-0.25c0.625-1.531,1.25-3.094,1.844-4.656
	c0.078-0.188,0.141-0.375,0.219-0.562c0.547-1.438,1.078-2.906,1.594-4.344c0.109-0.312,0.219-0.594,0.312-0.906
	c0.469-1.328,0.938-2.688,1.375-4.031c0.141-0.406,0.266-0.812,0.391-1.219c0.406-1.218,0.781-2.452,1.156-3.687
	c0.156-0.531,0.312-1.062,0.469-1.594c0.312-1.078,0.625-2.156,0.922-3.25c0.188-0.688,0.375-1.375,0.562-2.047
	c0.234-0.891,0.453-1.766,0.672-2.656c0.234-0.891,0.453-1.797,0.656-2.672c0.156-0.656,0.312-1.281,0.453-1.922
	c0.266-1.141,0.516-2.297,0.75-3.453c0.125-0.578,0.234-1.156,0.359-1.734c0.25-1.219,0.484-2.453,0.703-3.672
	c0.094-0.516,0.188-1.031,0.281-1.531c0.219-1.312,0.438-2.594,0.641-3.906c0.062-0.438,0.141-0.906,0.203-1.344
	c0.203-1.375,0.406-2.734,0.578-4.109c0.047-0.391,0.094-0.766,0.141-1.172c0.188-1.438,0.344-2.875,0.5-4.312
	c0.031-0.328,0.062-0.656,0.094-0.969c0.156-1.516,0.281-3.031,0.406-4.562c0.016-0.25,0.031-0.5,0.047-0.75
	c0.125-1.593,0.234-3.187,0.312-4.78c0-0.188,0.016-0.359,0.031-0.531c0.078-1.672,0.141-3.344,0.188-5.031c0-0.094,0-0.188,0-0.281
	c0.047-1.781,0.062-3.531,0.062-5.312c0-1.391-0.016-2.781-0.031-4.188C469.27,294.165,469.27,293.852,469.254,293.556z"/>
<g>
	<path style="fill:#DA4453;" d="M153.012,286.571c0,7.922-6.406,14.328-14.327,14.328c-7.922,0-14.328-6.406-14.328-14.328
		c0-7.921,6.406-14.327,14.328-14.327C146.604,272.244,153.012,278.65,153.012,286.571z"/>
	<path style="fill:#DA4453;" d="M276.009,297.399c0,9.312-7.531,16.844-16.828,16.844s-16.827-7.531-16.827-16.844
		c0-9.281,7.53-16.827,16.827-16.827S276.009,288.118,276.009,297.399z"/>
	<path style="fill:#DA4453;" d="M396.349,297.571c0,11.047-8.969,19.999-20,19.999c-11.047,0-20-8.952-20-19.999
		s8.953-19.999,20-19.999C387.382,277.572,396.349,286.524,396.349,297.571z"/>
</g>
<g>
	<path style="fill:#FFCE54;" d="M138.669,255.994c-17.656,0-32,14.352-32,31.999c0,17.641,14.344,31.999,32,31.999
		c17.64,0,31.999-14.358,31.999-31.999C170.667,270.346,156.307,255.994,138.669,255.994z M138.669,298.649
		c-5.891,0-10.672-4.766-10.672-10.656c0-5.906,4.781-10.671,10.672-10.671c5.89,0,10.655,4.765,10.655,10.671
		C149.324,293.884,144.557,298.649,138.669,298.649z"/>
	<path style="fill:#FFCE54;" d="M255.992,266.658c-17.64,0-31.998,14.352-31.998,31.991c0,17.655,14.358,31.999,31.998,31.999
		c17.641,0,32-14.344,32-31.999C287.992,281.01,273.634,266.658,255.992,266.658z M255.992,309.321
		c-5.891,0-10.671-4.766-10.671-10.672c0-5.875,4.78-10.656,10.671-10.656c5.891,0,10.672,4.781,10.672,10.656
		C266.664,304.556,261.884,309.321,255.992,309.321z"/>
	<path style="fill:#FFCE54;" d="M373.319,266.658c-17.641,0-32,14.352-32,31.991c0,17.655,14.359,31.999,32,31.999
		c17.656,0,31.999-14.344,31.999-31.999C405.318,281.01,390.974,266.658,373.319,266.658z M373.319,309.321
		c-5.891,0-10.656-4.766-10.656-10.672c0-5.875,4.766-10.656,10.656-10.656s10.672,4.781,10.672,10.656
		C383.991,304.556,379.21,309.321,373.319,309.321z"/>
</g>
</svg>